<svg xmlns="http://www.w3.org/2000/svg" viewBox="0 0 535.3 707.52"><defs><style>.cls-1{fill:#8656ff;}.cls-2{fill:#ffc552;}.cls-3{fill:#adadad;}</style></defs><title>tezda - 3</title><g id="Layer_2" data-name="Layer 2"><g id="Layer_6" data-name="Layer 6"><path class="cls-1" d="M378.29,4.78,364.37,68.54,341.35,174l-5.72,26.18-.11.59L335,203l-.36-1.73-.12-.53L328.79,174,306.09,68.23,292.41,4.45A199.8,199.8,0,0,1,334.56,0a201.86,201.86,0,0,1,43.73,4.78"/><path class="cls-1" d="M535.3,200.74c0,96.42-68,177-158.63,196.3a200.89,200.89,0,0,1-42.11,4.44q-7.76,0-15.35-.59a197,197,0,0,1-26.57-3.81,201.1,201.1,0,0,1-126.2-86.64A200.41,200.41,0,0,1,0,401.46V336.22A135.47,135.47,0,0,0,133.82,200.74h65.25a135.09,135.09,0,0,0,46.38,102.07,135.38,135.38,0,0,0,61.11,30.53,135.65,135.65,0,0,0,26.77,2.88c.41,0,.82,0,1.23,0a135.31,135.31,0,0,0,135.5-135.5Z"/><path class="cls-2" d="M199.07,142.19a31.8,31.8,0,1,1-20.38-29.66,31.52,31.52,0,0,1,20.38,29.66"/><path class="cls-1" d="M533.53,174H467.42a134.71,134.71,0,0,0-24.81-55l43.64-49.68A199.75,199.75,0,0,1,533.53,174"/><path class="cls-1" d="M467.37,50.22l-43.06,49A135.3,135.3,0,0,0,389.92,77L404,12.34a200.34,200.34,0,0,1,63.33,37.88"/><path class="cls-3" d="M30,694.89a6.59,6.59,0,0,1-2.64-.53A10.1,10.1,0,0,1,25.14,693a12.45,12.45,0,0,1-1.73,3.66,13.12,13.12,0,0,1-2.74,2.87,12.61,12.61,0,0,1-3.53,1.89,12.65,12.65,0,0,1-9-.31,12.63,12.63,0,0,1-6.74-6.74,12.29,12.29,0,0,1-1-4.89v-7.11H3.51v7.11a9.06,9.06,0,0,0,.77,3.68,9.55,9.55,0,0,0,5.05,5.05,9.17,9.17,0,0,0,3.66.74,9.7,9.7,0,0,0,3.76-.74,9.55,9.55,0,0,0,3.05-2,9.83,9.83,0,0,0,2.05-3,9.06,9.06,0,0,0,.77-3.68V679.1h3v8.31A4,4,0,0,0,26,689.1a4.53,4.53,0,0,0,2.4,2.29,4.36,4.36,0,0,0,1.66.34h.57c1.09,0,1.64.51,1.64,1.53a1.45,1.45,0,0,1-1.64,1.63ZM13.41,679.31h0A1.63,1.63,0,0,1,15,680.94v.16a1.63,1.63,0,0,1-3.26,0v-.16a1.63,1.63,0,0,1,1.63-1.63"/><path class="cls-3" d="M30.62,694.89A1.45,1.45,0,0,1,29,693.25c0-1,.55-1.52,1.64-1.52h5.47c1.08,0,1.63.51,1.63,1.52a1.45,1.45,0,0,1-1.63,1.64Z"/><path class="cls-3" d="M36.09,694.89a1.45,1.45,0,0,1-1.63-1.64c0-1,.54-1.52,1.63-1.52h5.47c1.09,0,1.63.51,1.63,1.52a1.45,1.45,0,0,1-1.63,1.64Z"/><path class="cls-3" d="M41.56,694.89a1.45,1.45,0,0,1-1.63-1.64c0-1,.54-1.52,1.63-1.52H47c1.09,0,1.63.51,1.63,1.52A1.45,1.45,0,0,1,47,694.89Z"/><path class="cls-3" d="M47,694.89a1.45,1.45,0,0,1-1.63-1.64c0-1,.55-1.52,1.63-1.52h5.48c1.08,0,1.63.51,1.63,1.52a1.45,1.45,0,0,1-1.63,1.64Z"/><path class="cls-3" d="M52.51,694.89a1.45,1.45,0,0,1-1.64-1.64c0-1,.55-1.52,1.64-1.52H58c1.09,0,1.63.51,1.63,1.52A1.45,1.45,0,0,1,58,694.89Z"/><path class="cls-3" d="M58,694.89a1.45,1.45,0,0,1-1.63-1.64c0-1,.54-1.52,1.63-1.52h5.47c1.09,0,1.63.51,1.63,1.52a1.45,1.45,0,0,1-1.63,1.64Z"/><path class="cls-3" d="M63.45,694.89a1.45,1.45,0,0,1-1.63-1.64c0-1,.54-1.52,1.63-1.52h5.48c1.08,0,1.63.51,1.63,1.52a1.45,1.45,0,0,1-1.63,1.64Z"/><path class="cls-3" d="M68.93,694.89a1.47,1.47,0,0,1-1.69-1.63c0-1,.56-1.53,1.69-1.53h6.63a3.89,3.89,0,0,0,1.68-.37,4.7,4.7,0,0,0,1.39-1,4.75,4.75,0,0,0,1-1.45,4.52,4.52,0,0,0,.37-1.79v-7.31h3.15v7.47a7.31,7.31,0,0,1-.6,3,8,8,0,0,1-1.63,2.39,7.84,7.84,0,0,1-2.4,1.63,7.23,7.23,0,0,1-2.94.61Zm1.63,6.1h0a1.58,1.58,0,0,1,1.58,1.58v.11a1.58,1.58,0,0,1-3.16,0v-.11A1.58,1.58,0,0,1,70.56,701m6.31,0h0a1.58,1.58,0,0,1,1.58,1.58v.11a1.58,1.58,0,0,1-3.16,0v-.11A1.58,1.58,0,0,1,76.87,701"/><path class="cls-3" d="M93.84,688.68l-5.16-20.84,3.06-.74,5.15,20.84Zm19,3.05a6.44,6.44,0,0,1-2.58-.53,6.91,6.91,0,0,1-2.13-1.42,6.42,6.42,0,0,1-1.45-2.1,6.57,6.57,0,0,1-.53-2.63V665.89h-3v19.16a6.8,6.8,0,0,1-.6,2.63,7.09,7.09,0,0,1-1.45,2.1,6.78,6.78,0,0,1-4.79,2H89.05v3.16h7.21a9.58,9.58,0,0,0,4.84-1.24,9.89,9.89,0,0,0,3.48-3.29,10.8,10.8,0,0,0,3.52,3.26,9.15,9.15,0,0,0,4.69,1.27h.42a1.44,1.44,0,0,0,1.63-1.63c0-1-.54-1.53-1.63-1.53Z"/><path class="cls-3" d="M113.21,694.89a1.47,1.47,0,0,1-1.69-1.63c0-1,.57-1.53,1.69-1.53h3.47a3.82,3.82,0,0,0,1.68-.37,4.62,4.62,0,0,0,2.37-2.42,4.35,4.35,0,0,0,.37-1.79v-7.31h3.16v7.47a7.15,7.15,0,0,1-.61,3,7.63,7.63,0,0,1-1.63,2.39,7.8,7.8,0,0,1-2.39,1.63,7.28,7.28,0,0,1-2.95.61Zm9.42-20.47h0a1.58,1.58,0,0,1-1.58-1.58v-.11a1.58,1.58,0,0,1,3.16,0v.11a1.58,1.58,0,0,1-1.58,1.58"/><path class="cls-3" d="M139.18,663.21h-8l-1.68.1a3.63,3.63,0,0,0-.95.32,3.24,3.24,0,0,0-.47.71c-.15.26-.29.53-.43.81l-2.58-.94a12.28,12.28,0,0,1,.93-1.74,4.22,4.22,0,0,1,1-1.13,3.66,3.66,0,0,1,1.37-.63,9.08,9.08,0,0,1,1.87-.24h8.89Zm-6.69,4.15h3.16v27.53h-3.16Z"/><path class="cls-3" d="M180.08,691.73a9,9,0,0,1-1.37-2.37,7.4,7.4,0,0,1-.53-2.84,7.49,7.49,0,0,1,.61-3,9.65,9.65,0,0,1,1.55-2.53,5.85,5.85,0,0,1-2.24-1,9,9,0,0,1-1.76-1.92l1.84-1.74a6.64,6.64,0,0,0,4.53,2.05l15.94-.16a8.5,8.5,0,0,1,3.21.63,8.1,8.1,0,0,1,2.66,1.77,8.48,8.48,0,0,1,1.79,2.66,8.12,8.12,0,0,1,.66,3.26,7.87,7.87,0,0,1-.66,3.23,9,9,0,0,1-1.79,2.66,8.23,8.23,0,0,1-2.66,1.82,8,8,0,0,1-3.21.66H161.18a4.4,4.4,0,0,0-4.42,4.42,4.18,4.18,0,0,0,.35,1.68,4.27,4.27,0,0,0,.94,1.39,4.77,4.77,0,0,0,1.4,1,4.09,4.09,0,0,0,1.73.37h23.68v3.16H161.18a7.23,7.23,0,0,1-2.94-.61,7.36,7.36,0,0,1-2.37-1.63,7.65,7.65,0,0,1-1.58-2.4,7.77,7.77,0,0,1,0-5.89,7.49,7.49,0,0,1,1.58-2.39,7.39,7.39,0,0,1,2.37-1.64,7.22,7.22,0,0,1,2.94-.6Zm1.26-5.21a5,5,0,0,0,.42,2.05,5.61,5.61,0,0,0,1.13,1.66,5.07,5.07,0,0,0,1.66,1.1,4.9,4.9,0,0,0,1.95.4,5.34,5.34,0,0,0,2.07-.4,5.09,5.09,0,0,0,1.69-1.1,5.61,5.61,0,0,0,1.13-1.66,5,5,0,0,0,.42-2.05,4.68,4.68,0,0,0-.42-2,5.26,5.26,0,0,0-1.13-1.61,6,6,0,0,0-1.69-1.11,5.18,5.18,0,0,0-2.07-.42,4.75,4.75,0,0,0-1.95.42,6,6,0,0,0-1.66,1.11,5.26,5.26,0,0,0-1.13,1.61,4.68,4.68,0,0,0-.42,2m17.31,5.21a5,5,0,0,0,3.69-1.5,5.1,5.1,0,0,0,1.47-3.71,5.36,5.36,0,0,0-1.47-3.71,5.16,5.16,0,0,0-1.64-1.13,5,5,0,0,0-2-.42l-5.58.1a7.92,7.92,0,0,1,1.9,5.16,7.71,7.71,0,0,1-1.9,5.21Z"/><path class="cls-3" d="M226.73,681.26a7,7,0,0,1,2.29,2.58,7.66,7.66,0,0,1,.86,3.63,7.09,7.09,0,0,1-.57,2.81,7.87,7.87,0,0,1-1.58,2.37,7.59,7.59,0,0,1-2.37,1.63,7.28,7.28,0,0,1-3,.61H212v-3.16h10.42a4.31,4.31,0,0,0,3.13-1.26,4.08,4.08,0,0,0,1.29-3,4.6,4.6,0,0,0-.55-2.27,3.94,3.94,0,0,0-1.45-1.52l-8.47-5.84,1.63-2.53c.81.56,1.57,1.08,2.29,1.55l2,1.34c.56.35,1.1.71,1.63,1.06s1,.66,1.39,1,.74.51,1,.71.4.3.4.34"/><path class="cls-3" d="M244.68,694.89a1.45,1.45,0,0,1-1.63-1.64c0-1,.54-1.52,1.63-1.52h5.47c1.09,0,1.63.51,1.63,1.52a1.45,1.45,0,0,1-1.63,1.64Z"/><path class="cls-3" d="M250.15,694.89a1.45,1.45,0,0,1-1.63-1.64c0-1,.55-1.52,1.63-1.52h5.48c1.08,0,1.63.51,1.63,1.52a1.45,1.45,0,0,1-1.63,1.64Z"/><path class="cls-3" d="M255.63,694.89a1.45,1.45,0,0,1-1.63-1.64c0-1,.54-1.52,1.63-1.52h5.47c1.09,0,1.63.51,1.63,1.52a1.45,1.45,0,0,1-1.63,1.64Z"/><path class="cls-3" d="M261.1,694.89a1.45,1.45,0,0,1-1.63-1.64c0-1,.54-1.52,1.63-1.52h5.47c1.09,0,1.63.51,1.63,1.52a1.45,1.45,0,0,1-1.63,1.64Z"/><path class="cls-3" d="M266.57,694.89a1.45,1.45,0,0,1-1.63-1.64c0-1,.54-1.52,1.63-1.52h5.48c1.08,0,1.63.51,1.63,1.52a1.45,1.45,0,0,1-1.63,1.64Z"/><path class="cls-3" d="M272,694.89a1.45,1.45,0,0,1-1.63-1.64c0-1,.55-1.52,1.63-1.52h5.48c1.09,0,1.63.51,1.63,1.52a1.45,1.45,0,0,1-1.63,1.64Z"/><path class="cls-3" d="M277.52,694.89a1.45,1.45,0,0,1-1.63-1.64c0-1,.54-1.52,1.63-1.52H283c1.09,0,1.63.51,1.63,1.52a1.45,1.45,0,0,1-1.63,1.64Z"/><path class="cls-3" d="M298,691.73h1c1.09,0,1.63.51,1.63,1.53a1.44,1.44,0,0,1-1.63,1.63,13.33,13.33,0,0,1-3.92-.53,6.37,6.37,0,0,1-3.13-2.37,7.37,7.37,0,0,1-5.95,2.9h-3a1.44,1.44,0,0,1-1.63-1.63c0-1,.54-1.53,1.63-1.53h3a4,4,0,0,0,1.71-.37,4.71,4.71,0,0,0,1.42-1,4.35,4.35,0,0,0,.95-1.45,4.67,4.67,0,0,0,.34-1.79v-7.26h3.16v7.42a4.32,4.32,0,0,0,1.26,3.1,4.2,4.2,0,0,0,3.16,1.32m-9-17.31h0a1.58,1.58,0,0,1-1.58-1.58v-.11a1.58,1.58,0,1,1,3.16,0v.11a1.58,1.58,0,0,1-1.58,1.58m6.31,0h0a1.57,1.57,0,0,1-1.57-1.58v-.11a1.58,1.58,0,1,1,3.15,0v.11a1.58,1.58,0,0,1-1.58,1.58"/><path class="cls-3" d="M299,694.89a1.47,1.47,0,0,1-1.69-1.63c0-1,.56-1.53,1.69-1.53h3.47a3.9,3.9,0,0,0,1.69-.37,5,5,0,0,0,1.39-1,4.73,4.73,0,0,0,1-1.45,4.35,4.35,0,0,0,.37-1.79v-7.31H310v7.47a7.15,7.15,0,0,1-.61,3,7.63,7.63,0,0,1-1.63,2.39,7.8,7.8,0,0,1-2.39,1.63,7.28,7.28,0,0,1-3,.61Zm4.73,6.1h0a1.58,1.58,0,0,1,1.58,1.58v.11a1.58,1.58,0,0,1-3.16,0v-.11a1.58,1.58,0,0,1,1.58-1.58"/><path class="cls-3" d="M336.9,691.73c1.09,0,1.64.51,1.64,1.53a1.45,1.45,0,0,1-1.64,1.63h-3.57a12.92,12.92,0,0,1-1,5.34,10.78,10.78,0,0,1-2.79,3.71,8.91,8.91,0,0,1-2,1.29,23.46,23.46,0,0,1-2.31,1c-.79.28-1.55.53-2.29.74s-1.39.4-1.95.58l-.79-2.58L324,703.6a11.47,11.47,0,0,0,3.37-1.82,6.93,6.93,0,0,0,1.82-2.21,9.26,9.26,0,0,0,.81-2.26c.07-.39.13-.79.19-1.21a5.48,5.48,0,0,0,0-1.21H325a7.78,7.78,0,0,1-3.26-.69,8.44,8.44,0,0,1-2.66-1.84,8.32,8.32,0,0,1-1.76-2.68,8,8,0,0,1-.64-3.16,8.18,8.18,0,0,1,.64-3.21,8.36,8.36,0,0,1,1.76-2.69,8.84,8.84,0,0,1,2.66-1.86,7.5,7.5,0,0,1,3.26-.71,7.91,7.91,0,0,1,3.31.68,8.61,8.61,0,0,1,2.66,1.84,8.24,8.24,0,0,1,1.76,2.71,8.4,8.4,0,0,1,.64,3.24v5.21Zm-6.63,0v-5.21a5.09,5.09,0,0,0-.42-2,5.54,5.54,0,0,0-1.13-1.71A5.28,5.28,0,0,0,325,681.2a4.94,4.94,0,0,0-2,.43,5.08,5.08,0,0,0-1.68,1.15,5.89,5.89,0,0,0-1.13,1.69,5.21,5.21,0,0,0,0,4.1,5.61,5.61,0,0,0,1.13,1.66,5,5,0,0,0,1.68,1.1,5.25,5.25,0,0,0,2,.4Z"/><path class="cls-3" d="M336.85,694.89a1.47,1.47,0,0,1-1.68-1.63q0-1.53,1.68-1.53h3.47a3.9,3.9,0,0,0,1.69-.37,4.83,4.83,0,0,0,1.39-1,4.75,4.75,0,0,0,1-1.45,4.51,4.51,0,0,0,.36-1.79v-7.31h3.16v7.47a7.31,7.31,0,0,1-.6,3,7.76,7.76,0,0,1-4,4,7.24,7.24,0,0,1-2.95.61Zm9.42-20.47h0a1.58,1.58,0,0,1-1.58-1.58v-.11a1.58,1.58,0,1,1,3.16,0v.11a1.58,1.58,0,0,1-1.58,1.58"/><path class="cls-3" d="M362.7,694.89a1.45,1.45,0,0,1-1.63-1.64c0-1,.54-1.52,1.63-1.52h5.47c1.09,0,1.63.51,1.63,1.52a1.45,1.45,0,0,1-1.63,1.64Z"/><path class="cls-3" d="M368.17,694.89a1.45,1.45,0,0,1-1.63-1.64c0-1,.54-1.52,1.63-1.52h5.47c1.09,0,1.64.51,1.64,1.52a1.45,1.45,0,0,1-1.64,1.64Z"/><path class="cls-3" d="M373.64,694.89a1.45,1.45,0,0,1-1.63-1.64c0-1,.55-1.52,1.63-1.52h5.48c1.09,0,1.63.51,1.63,1.52a1.45,1.45,0,0,1-1.63,1.64Z"/><path class="cls-3" d="M379.12,694.89a1.45,1.45,0,0,1-1.63-1.64c0-1,.54-1.52,1.63-1.52h5.47c1.09,0,1.63.51,1.63,1.52a1.45,1.45,0,0,1-1.63,1.64Z"/><path class="cls-3" d="M384.59,694.89a1.45,1.45,0,0,1-1.63-1.64c0-1,.54-1.52,1.63-1.52h5.47c1.09,0,1.63.51,1.63,1.52a1.45,1.45,0,0,1-1.63,1.64Z"/><path class="cls-3" d="M390.06,694.89a1.45,1.45,0,0,1-1.63-1.64c0-1,.54-1.52,1.63-1.52h5.48c1.08,0,1.63.51,1.63,1.52a1.45,1.45,0,0,1-1.63,1.64Z"/><path class="cls-3" d="M395.54,694.89a1.45,1.45,0,0,1-1.64-1.64c0-1,.55-1.52,1.64-1.52H401c1.09,0,1.63.51,1.63,1.52a1.45,1.45,0,0,1-1.63,1.64Z"/><path class="cls-3" d="M428,691.73a1.44,1.44,0,0,1,1.63,1.63c0,1-.54,1.53-1.63,1.53h-.63a7.24,7.24,0,0,1-3.5-.87,7.64,7.64,0,0,1-2.66-2.4,9.45,9.45,0,0,1-3,2.42,8.1,8.1,0,0,1-7.42,0,8.68,8.68,0,0,1-2.87-2.36,7.78,7.78,0,0,1-2.66,2.34,7.21,7.21,0,0,1-3.5.87H401c-1.09,0-1.63-.51-1.63-1.53a1.44,1.44,0,0,1,1.63-1.63h.73a4.38,4.38,0,0,0,3.08-1.24,4.06,4.06,0,0,0,1.35-3.13v-8.74l8.31-.36a8.25,8.25,0,0,1,3.26.65,8.35,8.35,0,0,1,4.45,4.45,8.15,8.15,0,0,1,.66,3.26v.64a4.61,4.61,0,0,0,1.39,3.23,4.28,4.28,0,0,0,3.08,1.24Zm-13.47.16a5,5,0,0,0,2-.42,5.59,5.59,0,0,0,1.69-1.14,5.16,5.16,0,0,0,1.15-1.65,4.87,4.87,0,0,0,.42-2.06,5,5,0,0,0-.42-2.07,5.22,5.22,0,0,0-1.15-1.69,5.75,5.75,0,0,0-1.69-1.13,5,5,0,0,0-2-.42l-5.31.1v5.21a4.87,4.87,0,0,0,.42,2.06,5.16,5.16,0,0,0,1.15,1.65,5.72,5.72,0,0,0,1.69,1.14,5,5,0,0,0,2.05.42"/><path class="cls-3" d="M443,691.73h1c1.09,0,1.63.51,1.63,1.53a1.44,1.44,0,0,1-1.63,1.63,13.37,13.37,0,0,1-3.92-.53A6.42,6.42,0,0,1,436.9,692a7.27,7.27,0,0,1-2.58,2.13,7.42,7.42,0,0,1-3.37.77h-3a1.45,1.45,0,0,1-1.63-1.63c0-1,.55-1.53,1.63-1.53h3a4,4,0,0,0,1.71-.37,4.59,4.59,0,0,0,1.42-1,4.35,4.35,0,0,0,.95-1.45,4.67,4.67,0,0,0,.34-1.79v-7.26h3.16v7.42a4.32,4.32,0,0,0,1.26,3.1,4.2,4.2,0,0,0,3.16,1.32m-9-17.31h0a1.58,1.58,0,0,1-1.58-1.58v-.11a1.58,1.58,0,1,1,3.16,0v.11a1.58,1.58,0,0,1-1.58,1.58m6.32,0h0a1.58,1.58,0,0,1-1.58-1.58v-.11a1.58,1.58,0,0,1,3.16,0v.11a1.58,1.58,0,0,1-1.58,1.58"/><path class="cls-3" d="M484.21,694.89h-1.37a7.55,7.55,0,0,1-3.5-.82,7.67,7.67,0,0,1-2.66-2.18,8,8,0,0,1-2.76,2.18,7.76,7.76,0,0,1-3.5.82,7.64,7.64,0,0,1-3.55-.82,8.14,8.14,0,0,1-2.71-2.18,8.26,8.26,0,0,1-2.69,2.18,8,8,0,0,1-7.05,0,8,8,0,0,1-2.73-2.18,8.37,8.37,0,0,1-2.69,2.18,7.49,7.49,0,0,1-3.52.82H443.9a1.45,1.45,0,0,1-1.63-1.64c0-1,.54-1.52,1.63-1.52h1.58a4.58,4.58,0,0,0,4.63-4.63v-6.42h3.26v6.42a4.57,4.57,0,0,0,1.29,3.29,4.32,4.32,0,0,0,3.23,1.34,4.66,4.66,0,0,0,1.87-.37,4.59,4.59,0,0,0,1.5-1,4.67,4.67,0,0,0,1-1.47,4.35,4.35,0,0,0,.37-1.79v-6.42h3.11v6.42a4.44,4.44,0,0,0,1.36,3.29,4.77,4.77,0,0,0,6.63,0,4.41,4.41,0,0,0,1.37-3.29v-7.58h3.16v7.68a4.32,4.32,0,0,0,1.34,3.21,4.47,4.47,0,0,0,3.24,1.32h1.37c1.08,0,1.63.51,1.63,1.52a1.45,1.45,0,0,1-1.63,1.64"/><path class="cls-3" d="M499.21,691.73h1c1.08,0,1.63.51,1.63,1.53a1.45,1.45,0,0,1-1.63,1.63,13.28,13.28,0,0,1-3.92-.53,6.44,6.44,0,0,1-3.14-2.37,7.33,7.33,0,0,1-2.57,2.13,7.45,7.45,0,0,1-3.37.77h-3a1.44,1.44,0,0,1-1.63-1.63c0-1,.54-1.53,1.63-1.53h3a4.08,4.08,0,0,0,1.71-.37,4.71,4.71,0,0,0,1.42-1,4.5,4.5,0,0,0,1-1.45,4.87,4.87,0,0,0,.34-1.79v-7.26h3.16v7.42a4.32,4.32,0,0,0,1.26,3.1,4.18,4.18,0,0,0,3.16,1.32M490.1,701h0a1.58,1.58,0,0,1,1.58,1.58v.11a1.58,1.58,0,0,1-3.16,0v-.11A1.58,1.58,0,0,1,490.1,701m6.32,0h0a1.58,1.58,0,0,1,1.58,1.58v.11a1.58,1.58,0,0,1-3.16,0v-.11a1.58,1.58,0,0,1,1.58-1.58"/><path class="cls-3" d="M500.15,694.89a1.45,1.45,0,0,1-1.63-1.64c0-1,.55-1.52,1.63-1.52h4.06a4.48,4.48,0,0,0,3.21-1.26,4.24,4.24,0,0,0,1.31-3.16V681h3.16v7a3.17,3.17,0,0,0,1.37,2.89,5.59,5.59,0,0,0,3.15.9,4.18,4.18,0,0,0,3.11-1.29,4.72,4.72,0,0,0,1.37-3.13V681h3l.05,6.69a4.14,4.14,0,0,0,1,2.92,3.85,3.85,0,0,0,3,1.13h3.68v-12h3.16v15.16h-6.42a6.93,6.93,0,0,1-6-3.06,7.25,7.25,0,0,1-2.55,2.27,7.5,7.5,0,0,1-3.5.79,7.74,7.74,0,0,1-3.4-.79,7,7,0,0,1-2.65-2.27,7.1,7.1,0,0,1-2.61,2.27,7.54,7.54,0,0,1-3.44.79Z"/><rect class="cls-1" x="1.96" y="488.79" width="22.89" height="108.83"/><path class="cls-1" d="M86.05,555.59a14.92,14.92,0,0,1,4.28,4.95A27.54,27.54,0,0,1,92.54,566a20.57,20.57,0,0,1,.8,4.82c0,1.43.07,2.41.07,2.94a22.88,22.88,0,0,1-1.81,8.9,23.6,23.6,0,0,1-5,7.63A25.28,25.28,0,0,1,79,595.61a21.9,21.9,0,0,1-9.3,2H41.07V574.86H70.52a1.05,1.05,0,0,0,.87-.73c.14-.41,0-.78-.47-1.14L45.36,555.18l12.31-18.74Z"/><path class="cls-1" d="M135.35,597.62q-1.74,12.18-8.7,19.68t-18.48,11l-7.63,2.41-5.89-20.61,6.43-2.55a30.44,30.44,0,0,0,8.16-4.75q3.48-2.88,3.48-8.5V557.86h23v15c0,1.26.49,1.88,1.47,1.88h5.35q2.15,0,3,3.14a31.87,31.87,0,0,1,.87,8.24,38,38,0,0,1-.74,8.36q-.74,3.15-3.15,3.15Z"/><path class="cls-1" d="M142.57,597.62q-2.4,0-3.14-3.15a38,38,0,0,1-.74-8.36,31.87,31.87,0,0,1,.87-8.24c.58-2.09,1.59-3.14,3-3.14H156.5c1.42,0,2.43,1,3,3.14a31.87,31.87,0,0,1,.87,8.24,38,38,0,0,1-.74,8.36q-.73,3.15-3.14,3.15Z"/><path class="cls-1" d="M156.49,597.62q-2.4,0-3.14-3.15a38,38,0,0,1-.74-8.36,31.87,31.87,0,0,1,.87-8.24c.58-2.09,1.59-3.14,3-3.14h13.93c1.42,0,2.43,1,3,3.14a31.87,31.87,0,0,1,.87,8.24,38,38,0,0,1-.74,8.36q-.74,3.15-3.14,3.15Z"/><path class="cls-1" d="M170.42,597.62q-2.41,0-3.15-3.15a38,38,0,0,1-.74-8.36,31.87,31.87,0,0,1,.87-8.24c.59-2.09,1.59-3.14,3-3.14h13.92c1.42,0,2.43,1,3,3.14a31.87,31.87,0,0,1,.87,8.24,38,38,0,0,1-.74,8.36q-.73,3.15-3.14,3.15Z"/><path class="cls-1" d="M184.34,597.62q-2.42,0-3.15-3.15a38.1,38.1,0,0,1-.73-8.36,32.38,32.38,0,0,1,.86-8.24c.59-2.09,1.59-3.14,3-3.14h13.92q2.15,0,3,3.14a31.87,31.87,0,0,1,.87,8.24,38,38,0,0,1-.74,8.36q-.74,3.15-3.14,3.15Z"/><path class="cls-1" d="M198.26,597.62q-2.41,0-3.15-3.15a38.1,38.1,0,0,1-.73-8.36,31.87,31.87,0,0,1,.87-8.24q.87-3.14,3-3.14h13.92q2.15,0,3,3.14a31.87,31.87,0,0,1,.87,8.24,38,38,0,0,1-.74,8.36q-.73,3.15-3.14,3.15Z"/><path class="cls-1" d="M212.18,597.62c-1.61,0-2.65-1-3.15-3.15a38.1,38.1,0,0,1-.73-8.36,31.87,31.87,0,0,1,.87-8.24q.87-3.14,3-3.14H226.1q2.15,0,3,3.14a31.87,31.87,0,0,1,.87,8.24,38.1,38.1,0,0,1-.73,8.36q-.74,3.15-3.15,3.15Z"/><path class="cls-1" d="M225,597.62q-2.4,0-3.14-3.15a38,38,0,0,1-.74-8.36,31.87,31.87,0,0,1,.87-8.24c.58-2.09,1.59-3.14,3-3.14h13.92c1.43,0,2.43,1,3,3.14a32.32,32.32,0,0,1,.87,8.24,38,38,0,0,1-.74,8.36q-.74,3.15-3.15,3.15Z"/><path class="cls-1" d="M238.88,597.62q-2.4,0-3.14-3.15a38,38,0,0,1-.74-8.36,31.87,31.87,0,0,1,.87-8.24c.58-2.09,1.59-3.14,3-3.14H252.8c1.43,0,2.43,1,3,3.14a31.87,31.87,0,0,1,.87,8.24,38,38,0,0,1-.74,8.36q-.73,3.15-3.15,3.15Z"/><path class="cls-1" d="M252.8,597.62q-2.4,0-3.14-3.15a38,38,0,0,1-.74-8.36,31.87,31.87,0,0,1,.87-8.24c.58-2.09,1.59-3.14,3-3.14h13.93c1.42,0,2.43,1,3,3.14a31.87,31.87,0,0,1,.87,8.24,38,38,0,0,1-.74,8.36q-.74,3.15-3.14,3.15Z"/><path class="cls-1" d="M266.73,597.62q-2.42,0-3.15-3.15a38,38,0,0,1-.74-8.36,31.87,31.87,0,0,1,.87-8.24q.87-3.14,3-3.14h13.92c1.42,0,2.43,1,3,3.14a31.87,31.87,0,0,1,.87,8.24,38,38,0,0,1-.74,8.36q-.74,3.15-3.14,3.15Z"/><path class="cls-1" d="M280.65,597.62q-2.41,0-3.15-3.15a38,38,0,0,1-.74-8.36,31.87,31.87,0,0,1,.87-8.24q.87-3.14,3-3.14h13.92c1.42,0,2.43,1,3,3.14a31.87,31.87,0,0,1,.87,8.24,38,38,0,0,1-.74,8.36q-.73,3.15-3.14,3.15Z"/><path class="cls-1" d="M294.57,597.62q-2.42,0-3.15-3.15a38.1,38.1,0,0,1-.73-8.36,31.87,31.87,0,0,1,.87-8.24q.87-3.14,3-3.14h13.92q2.14,0,3,3.14a31.87,31.87,0,0,1,.87,8.24,38,38,0,0,1-.74,8.36q-.74,3.15-3.14,3.15Z"/><path class="cls-1" d="M308.49,597.62q-2.42,0-3.15-3.15a38.1,38.1,0,0,1-.73-8.36,31.87,31.87,0,0,1,.87-8.24q.87-3.14,3-3.14h13.92q2.14,0,3,3.14a31.87,31.87,0,0,1,.87,8.24,38.73,38.73,0,0,1-.73,8.36c-.5,2.1-1.54,3.15-3.15,3.15Z"/><path class="cls-1" d="M322.41,597.62q-2.42,0-3.15-3.15a38.1,38.1,0,0,1-.73-8.36,31.87,31.87,0,0,1,.87-8.24q.87-3.14,3-3.14h13.92q2.15,0,3,3.14a31.87,31.87,0,0,1,.87,8.24,38.1,38.1,0,0,1-.73,8.36c-.5,2.1-1.54,3.15-3.15,3.15Z"/><path class="cls-1" d="M336.33,597.62c-1.61,0-2.65-1-3.15-3.15a38.1,38.1,0,0,1-.73-8.36,31.87,31.87,0,0,1,.87-8.24q.87-3.14,3-3.14h13.92q2.14,0,3,3.14a31.87,31.87,0,0,1,.87,8.24,38.1,38.1,0,0,1-.73,8.36q-.73,3.15-3.15,3.15Z"/><path class="cls-1" d="M350.25,597.62q-2.4,0-3.14-3.15a38,38,0,0,1-.74-8.36,31.87,31.87,0,0,1,.87-8.24q.87-3.14,3-3.14h13.92q2.15,0,3,3.14a31.87,31.87,0,0,1,.87,8.24,38.1,38.1,0,0,1-.73,8.36q-.74,3.15-3.15,3.15Z"/><path class="cls-1" d="M364.17,597.62q-2.4,0-3.14-3.15a38,38,0,0,1-.74-8.36,31.87,31.87,0,0,1,.87-8.24c.58-2.09,1.59-3.14,3-3.14h13.92c1.43,0,2.43,1,3,3.14a31.87,31.87,0,0,1,.87,8.24,38,38,0,0,1-.74,8.36q-.74,3.15-3.15,3.15Z"/><path class="cls-1" d="M378.09,597.62q-2.4,0-3.14-3.15a38,38,0,0,1-.74-8.36,31.87,31.87,0,0,1,.87-8.24c.58-2.09,1.59-3.14,3-3.14H392q2.13,0,3,3.14a31.87,31.87,0,0,1,.87,8.24,38,38,0,0,1-.74,8.36q-.74,3.15-3.14,3.15Z"/><path class="cls-1" d="M392,597.62q-2.4,0-3.14-3.15a38,38,0,0,1-.74-8.36,31.87,31.87,0,0,1,.87-8.24c.58-2.09,1.59-3.14,3-3.14h13.93q2.13,0,3,3.14a31.87,31.87,0,0,1,.87,8.24,38,38,0,0,1-.74,8.36q-.74,3.15-3.14,3.15Z"/><path class="cls-1" d="M405.94,597.62q-2.42,0-3.15-3.15a38,38,0,0,1-.74-8.36,31.87,31.87,0,0,1,.87-8.24q.87-3.14,3-3.14h13.92c1.42,0,2.43,1,3,3.14a31.87,31.87,0,0,1,.87,8.24,38,38,0,0,1-.74,8.36q-.74,3.15-3.14,3.15Z"/><path class="cls-1" d="M419.86,597.62q-2.42,0-3.15-3.15a38,38,0,0,1-.74-8.36,31.87,31.87,0,0,1,.87-8.24q.87-3.14,3-3.14h13.92c1.42,0,2.43,1,3,3.14a31.87,31.87,0,0,1,.87,8.24,38,38,0,0,1-.74,8.36q-.74,3.15-3.14,3.15Z"/><path class="cls-1" d="M433.78,597.62q-2.41,0-3.15-3.15a38,38,0,0,1-.74-8.36,32.32,32.32,0,0,1,.87-8.24c.59-2.09,1.59-3.14,3-3.14H447.7c1.42,0,2.43,1,3,3.14a31.87,31.87,0,0,1,.87,8.24,38,38,0,0,1-.74,8.36q-.73,3.15-3.14,3.15Z"/><path class="cls-1" d="M447.7,597.62q-2.42,0-3.15-3.15a38.1,38.1,0,0,1-.73-8.36,31.87,31.87,0,0,1,.87-8.24q.87-3.14,3-3.14h13.92q2.14,0,3,3.14a31.87,31.87,0,0,1,.87,8.24,38,38,0,0,1-.74,8.36q-.74,3.15-3.14,3.15Z"/><path class="cls-1" d="M461.62,597.62q-2.42,0-3.15-3.15a38.1,38.1,0,0,1-.73-8.36,31.87,31.87,0,0,1,.87-8.24q.87-3.14,3-3.14h13.92q2.15,0,3,3.14a31.87,31.87,0,0,1,.87,8.24,38.1,38.1,0,0,1-.73,8.36c-.5,2.1-1.54,3.15-3.15,3.15Z"/><path class="cls-1" d="M475.54,597.62c-1.61,0-2.65-1-3.15-3.15a38.1,38.1,0,0,1-.73-8.36,31.87,31.87,0,0,1,.87-8.24q.87-3.14,3-3.14h13.92q2.15,0,3,3.14a31.87,31.87,0,0,1,.87,8.24,38.1,38.1,0,0,1-.73,8.36q-.74,3.15-3.15,3.15Z"/><path class="cls-1" d="M489.46,597.62c-1.61,0-2.65-1-3.14-3.15a38,38,0,0,1-.74-8.36,31.87,31.87,0,0,1,.87-8.24q.87-3.14,3-3.14h13.92q2.14,0,3,3.14a31.87,31.87,0,0,1,.87,8.24,38.1,38.1,0,0,1-.73,8.36q-.73,3.15-3.15,3.15Z"/><path class="cls-1" d="M510.08,574.73c1,0,1.47-.62,1.47-1.88V549.3h22.89v24a23.55,23.55,0,0,1-1.94,9.43,24.48,24.48,0,0,1-12.92,13,23.43,23.43,0,0,1-9.5,1.94h-6.7q-2.4,0-3.14-3.15a38,38,0,0,1-.74-8.36,31.87,31.87,0,0,1,.87-8.24c.58-2.09,1.59-3.14,3-3.14Z"/><path class="cls-1" d="M136.21,535.91a11.7,11.7,0,1,1-11.7-11.7,11.7,11.7,0,0,1,11.7,11.7"/><path class="cls-1" d="M535,526.13a11.7,11.7,0,1,1-11.7-11.7,11.7,11.7,0,0,1,11.7,11.7"/><path class="cls-1" d="M532.09,497.64a8.85,8.85,0,1,1-8.84-8.85,8.84,8.84,0,0,1,8.84,8.85"/></g></g></svg>